<svg width="39" height="31" viewBox="0 0 39 31" fill="none" xmlns="http://www.w3.org/2000/svg">
<path d="M6.65005 2.90625C6.65005 2.13546 6.95032 1.39625 7.4848 0.851221C8.01928 0.306193 8.74418 0 9.50005 0C10.2559 0 10.9808 0.306193 11.5153 0.851221C12.0498 1.39625 12.3501 2.13546 12.3501 2.90625C12.3501 3.67704 12.0498 4.41625 11.5153 4.96128C10.9808 5.50631 10.2559 5.8125 9.50005 5.8125C8.74418 5.8125 8.01928 5.50631 7.4848 4.96128C6.95032 4.41625 6.65005 3.67704 6.65005 2.90625ZM9.02505 21.3125V29.0625C9.02505 30.1342 8.17599 31 7.12505 31C6.07411 31 5.22505 30.1342 5.22505 29.0625V15.5545L3.52693 18.4365C2.98661 19.3508 1.81693 19.6475 0.920363 19.0965C0.0238003 18.5455 -0.267137 17.3527 0.273175 16.4385L3.73474 10.5654C4.76786 8.81563 6.62036 7.74395 8.6213 7.74395H10.3847C12.3857 7.74395 14.2382 8.81563 15.2713 10.5654L18.7329 16.4385C19.2732 17.3527 18.9822 18.5455 18.0857 19.0965C17.1891 19.6475 16.0194 19.3508 15.4791 18.4365L13.7751 15.5545V29.0625C13.7751 30.1342 12.926 31 11.8751 31C10.8241 31 9.97505 30.1342 9.97505 29.0625V21.3125H9.02505Z" fill="#211A1A"/>
<path d="M25.6501 2.90625C25.6501 2.13546 25.9503 1.39625 26.4848 0.851221C27.0193 0.306193 27.7442 0 28.5001 0C29.2559 0 29.9808 0.306193 30.5153 0.851221C31.0498 1.39625 31.3501 2.13546 31.3501 2.90625C31.3501 3.67704 31.0498 4.41625 30.5153 4.96128C29.9808 5.50631 29.2559 5.8125 28.5001 5.8125C27.7442 5.8125 27.0193 5.50631 26.4848 4.96128C25.9503 4.41625 25.6501 3.67704 25.6501 2.90625ZM28.0251 21.3125V29.0625C28.0251 30.1342 27.176 31 26.1251 31C25.0741 31 24.2251 30.1342 24.2251 29.0625V15.5545L22.5269 18.4365C21.9866 19.3508 20.8169 19.6475 19.9204 19.0965C19.0238 18.5455 18.7329 17.3527 19.2732 16.4385L22.7347 10.5654C23.7679 8.81563 25.6204 7.74395 27.6213 7.74395H29.3847C31.3857 7.74395 33.2382 8.81563 34.2713 10.5654L37.7329 16.4385C38.2732 17.3527 37.9822 18.5455 37.0857 19.0965C36.1891 19.6475 35.0194 19.3508 34.4791 18.4365L32.7751 15.5545V29.0625C32.7751 30.1342 31.926 31 30.8751 31C29.8241 31 28.9751 30.1342 28.9751 29.0625V21.3125H28.0251Z" fill="#211A1A"/>
</svg>
