<svg width="44" height="50" viewBox="0 0 44 50" fill="none" xmlns="http://www.w3.org/2000/svg">
<g clip-path="url(#clip0_202_2)">
<path d="M22 10.9375C21.1357 10.9375 20.4286 10.2344 20.4286 9.375V7.8125C20.4286 3.49609 23.9446 0 28.2857 0H29.8571C30.7214 0 31.4286 0.703125 31.4286 1.5625V3.125C31.4286 7.44141 27.9125 10.9375 23.5714 10.9375H22ZM0 28.125C0 20.6738 3.50625 12.5 11 12.5C13.6812 12.5 16.8634 13.5059 19.1223 14.3848C20.9687 15.0977 23.0411 15.0977 24.8875 14.3848C27.1366 13.5156 30.3286 12.5 33.0098 12.5C40.5036 12.5 44.0098 20.6738 44.0098 28.125C44.0098 40.625 36.1527 50 28.2955 50C26.675 50 24.5536 49.3555 23.2375 48.8965C22.442 48.623 21.5777 48.623 20.7821 48.8965C19.4661 49.3555 17.3446 50 15.7241 50C7.85714 50 0 40.625 0 28.125Z" fill="white"/>
</g>
<defs>
<clipPath id="clip0_202_2">
<rect width="44" height="50" fill="white"/>
</clipPath>
</defs>
</svg>
