<svg width="36" height="42" viewBox="0 0 36 42" fill="none" xmlns="http://www.w3.org/2000/svg">
<g clip-path="url(#clip0_27_384)">
<path d="M33.4286 0C32.1429 0 23.1429 2.625 23.1429 14.4375V23.625C23.1429 26.5207 25.4491 28.875 28.2857 28.875H30.8571V39.375C30.8571 40.827 32.0062 42 33.4286 42C34.8509 42 36 40.827 36 39.375V28.875V19.6875V2.625C36 1.17305 34.8509 0 33.4286 0ZM5.14286 1.3125C5.14286 0.639844 4.65268 0.0820312 3.99375 0.00820313C3.33482 -0.065625 2.74821 0.377344 2.60357 1.02539L0.16875 12.2063C0.05625 12.723 0 13.248 0 13.773C0 17.5383 2.82054 20.6309 6.42857 20.9672V39.375C6.42857 40.827 7.57768 42 9 42C10.4223 42 11.5714 40.827 11.5714 39.375V20.9672C15.1795 20.6309 18 17.5383 18 13.773C18 13.248 17.9437 12.723 17.8312 12.2063L15.3964 1.02539C15.2518 0.369141 14.6491 -0.065625 13.9982 0.00820313C13.3473 0.0820312 12.8571 0.639844 12.8571 1.3125V12.3211C12.8571 12.7641 12.5036 13.125 12.0696 13.125C11.6598 13.125 11.3223 12.8051 11.2821 12.3867L10.2777 1.19766C10.2214 0.516797 9.66696 0 9 0C8.33304 0 7.77857 0.516797 7.72232 1.19766L6.72589 12.3867C6.68571 12.8051 6.34821 13.125 5.93839 13.125C5.50446 13.125 5.15089 12.7641 5.15089 12.3211V1.3125H5.14286ZM9.02411 13.7812H9H8.97589L9 13.7238L9.02411 13.7812Z" fill="white"/>
</g>
<defs>
<clipPath id="clip0_27_384">
<rect width="36" height="42" fill="white"/>
</clipPath>
</defs>
</svg>
