<svg width="42" height="42" viewBox="0 0 42 42" fill="none" xmlns="http://www.w3.org/2000/svg">
<g clip-path="url(#clip0_29_539)">
<path d="M41.0402 0.598724C41.6473 1.09091 42 1.8374 42 2.6249V14.4374C42 16.6112 39.6457 18.3749 36.75 18.3749C33.8543 18.3749 31.5 16.6112 31.5 14.4374C31.5 12.2636 33.8543 10.4999 36.75 10.4999V5.82411L28.875 7.39911V17.0624C28.875 19.2362 26.5207 20.9999 23.625 20.9999C20.7293 20.9999 18.375 19.2362 18.375 17.0624C18.375 14.8886 20.7293 13.1249 23.625 13.1249V5.2499C23.625 3.99482 24.5109 2.92021 25.7332 2.67411L38.8582 0.049115C39.6293 -0.106744 40.425 0.0983337 41.0402 0.590521V0.598724ZM6.12773 24.9374L7.0957 23.4772C7.57969 22.7472 8.4 22.3124 9.27773 22.3124H14.3391C15.2168 22.3124 16.0371 22.7472 16.5211 23.4772L17.4973 24.9374H19.6875C21.8613 24.9374 23.625 26.7011 23.625 28.8749V38.0624C23.625 40.2362 21.8613 41.9999 19.6875 41.9999H3.9375C1.76367 41.9999 0 40.2362 0 38.0624V28.8749C0 26.7011 1.76367 24.9374 3.9375 24.9374H6.12773ZM15.75 33.4686C15.75 32.4244 15.3352 31.4228 14.5967 30.6844C13.8583 29.946 12.8568 29.5311 11.8125 29.5311C10.7682 29.5311 9.76669 29.946 9.02827 30.6844C8.28984 31.4228 7.875 32.4244 7.875 33.4686C7.875 34.5129 8.28984 35.5145 9.02827 36.2529C9.76669 36.9913 10.7682 37.4061 11.8125 37.4061C12.8568 37.4061 13.8583 36.9913 14.5967 36.2529C15.3352 35.5145 15.75 34.5129 15.75 33.4686ZM39.2684 22.8292L36.1184 30.1874H40.6875C41.2371 30.1874 41.7211 30.5237 41.918 31.0405C42.1148 31.5573 41.9672 32.1315 41.557 32.4925L31.057 41.68C30.5977 42.0819 29.9168 42.1147 29.4246 41.7538C28.9324 41.3929 28.752 40.7366 28.9898 40.1788L32.1316 32.8124H27.5625C27.0129 32.8124 26.5289 32.4761 26.332 31.9593C26.1352 31.4425 26.2828 30.8683 26.693 30.5073L37.193 21.3198C37.6523 20.9179 38.3332 20.8851 38.8254 21.246C39.3176 21.6069 39.498 22.2632 39.2602 22.821L39.2684 22.8292ZM11.4598 17.9729C10.9266 18.5061 10.0652 18.5061 9.57305 17.9729L1.63242 9.77802C-0.664453 7.39911 -0.541406 3.46982 2.04258 1.25497C4.25742 -0.67276 7.65352 -0.303619 9.7043 1.78818L10.5246 2.64951L11.3039 1.78818C13.3547 -0.303619 16.7098 -0.67276 19.0066 1.25497C21.5496 3.46982 21.6727 7.39911 19.3758 9.77802L11.468 17.9729H11.4598Z" fill="white"/>
</g>
<defs>
<clipPath id="clip0_29_539">
<rect width="42" height="42" fill="white"/>
</clipPath>
</defs>
</svg>
