<svg width="59" height="59" viewBox="0 0 59 59" fill="none" xmlns="http://www.w3.org/2000/svg">
<path fill-rule="evenodd" clip-rule="evenodd" d="M0 58.4287H58.4287V0H0V58.4287Z" fill="#F59100"/>
<path fill-rule="evenodd" clip-rule="evenodd" d="M23.1994 29.1392C23.1994 32.1504 22.538 34.4652 19.1599 34.4652C15.3757 34.4652 14.9714 31.7484 14.9714 29.5435V12.2753L10.1238 13.3427V30.2422C10.1238 36.6707 14.6027 39.1293 18.939 39.1293C24.5946 39.1293 28.0469 35.4958 28.0469 30.9387V12.2753L23.1994 13.3427V29.1392Z" fill="white"/>
<path fill-rule="evenodd" clip-rule="evenodd" d="M40.2771 19.313C38.3234 19.313 36.5426 19.9025 35.0317 20.9536V18.2082L30.353 19.3399V45.1556L35.0194 44.0858V37.478C36.5262 38.5185 38.3338 39.1267 40.2771 39.1267C45.5354 39.1267 49.7957 34.6911 49.7957 29.2207C49.7957 23.7486 45.5354 19.313 40.2771 19.313ZM39.9786 34.8705C36.8557 34.8705 34.5783 32.2612 34.5783 29.2125C34.5783 26.1645 36.8557 23.5569 39.9786 23.5569C43.1008 23.5569 45.3788 26.1645 45.3788 29.2125C45.3788 32.2612 43.1008 34.8705 39.9786 34.8705Z" fill="white"/>
</svg>
