<svg width="53" height="42" viewBox="0 0 53 42" fill="none" xmlns="http://www.w3.org/2000/svg">
<g clip-path="url(#clip0_107_1190)">
<g clip-path="url(#clip1_107_1190)">
<path d="M21.0199 19.302C23.7844 21 26.1797 23.2477 28.0582 25.9055C28.6324 26.7176 29.1574 27.5707 29.625 28.4484C30.0926 27.5625 30.6176 26.7176 31.1918 25.9055C33.0703 23.2477 35.4656 21 38.2301 19.302C41.8969 17.0461 46.2035 15.75 50.7891 15.75H51.6012C52.5117 15.75 53.25 16.4883 53.25 17.3988C53.25 29.5395 43.4145 39.375 31.2738 39.375H29.625H27.9762C15.8355 39.375 6 29.5395 6 17.3988C6 16.4883 6.73828 15.75 7.64883 15.75H8.46094C13.0465 15.75 17.3531 17.0461 21.0199 19.302ZM30.7324 3.08437C32.0203 4.4707 35.7445 8.97422 37.6559 16.5867C34.5387 18.3586 31.7988 20.7539 29.625 23.6086C27.4512 20.7539 24.7113 18.3668 21.5941 16.5867C23.4973 8.97422 27.2215 4.4707 28.5176 3.08437C28.8047 2.78086 29.2066 2.625 29.625 2.625C30.0434 2.625 30.4453 2.78086 30.7324 3.08437Z" fill="white"/>
</g>
</g>
<defs>
<clipPath id="clip0_107_1190">
<rect width="52.5" height="42" fill="white"/>
</clipPath>
<clipPath id="clip1_107_1190">
<rect width="47.25" height="42" fill="white" transform="translate(6)"/>
</clipPath>
</defs>
</svg>
