<svg width="23" height="21" viewBox="0 0 23 21" fill="none" xmlns="http://www.w3.org/2000/svg">
<path d="M12.204 0.738281C11.9832 0.287109 11.5165 0 11.004 0C10.4915 0 10.029 0.287109 9.80404 0.738281L7.12488 6.16465L1.14154 7.03418C0.641545 7.10801 0.224878 7.45254 0.0707113 7.92422C-0.0834554 8.3959 0.0415445 8.9168 0.399878 9.26543L4.74154 13.4941L3.71654 19.4701C3.63321 19.9623 3.84154 20.4627 4.25404 20.7539C4.66654 21.0451 5.21238 21.082 5.66238 20.8482L11.0082 18.0387L16.354 20.8482C16.804 21.082 17.3499 21.0492 17.7624 20.7539C18.1749 20.4586 18.3832 19.9623 18.2999 19.4701L17.2707 13.4941L21.6124 9.26543C21.9707 8.9168 22.0999 8.3959 21.9415 7.92422C21.7832 7.45254 21.3707 7.10801 20.8707 7.03418L14.8832 6.16465L12.204 0.738281Z" fill="#211A1A"/>
</svg>
