<svg width="60" height="49" viewBox="0 0 60 49" fill="none" xmlns="http://www.w3.org/2000/svg">
<path d="M18.7882 2.40352C18.9031 1.05 20.0433 0 21.405 0H37.155C38.5167 0 39.657 1.05 39.7718 2.40352L40.9202 16.2176C41.4124 22.1238 37.4339 27.3082 31.905 28.5715V36.75H35.8425C37.2945 36.75 38.4675 37.923 38.4675 39.375C38.4675 40.827 37.2945 42 35.8425 42H29.28H22.7175C21.2656 42 20.0925 40.827 20.0925 39.375C20.0925 37.923 21.2656 36.75 22.7175 36.75H26.655V28.5797C21.1261 27.3164 17.1476 22.132 17.6398 16.2258L18.7882 2.41172V2.40352ZM23.382 10.5H35.1781L34.7433 5.25H23.8167L23.382 10.5Z" fill="white"/>
</svg>
